<svg width="297" height="53" viewBox="0 0 297 53" fill="none" xmlns="http://www.w3.org/2000/svg">
<path d="M73.3492 20.546L74.0252 16.906C75.6719 16.9233 76.9979 16.88 78.0032 16.776C79.0259 16.6547 79.7972 16.438 80.3172 16.126C80.8545 15.7967 81.2012 15.3373 81.3572 14.748C81.5305 14.1413 81.5912 13.37 81.5392 12.434L80.9672 0.967999H84.6072L85.1792 12.616C85.2312 13.656 85.3525 14.4533 85.5432 15.008C85.7339 15.5627 86.0199 15.9527 86.4012 16.178C86.7825 16.386 87.2852 16.49 87.9092 16.49C88.5505 16.49 89.0099 16.6633 89.2872 17.01C89.5819 17.3393 89.7292 17.7553 89.7292 18.258C89.7292 18.7953 89.5472 19.246 89.1832 19.61C88.8192 19.9567 88.3079 20.13 87.6492 20.13C86.8865 20.13 86.2019 20.0347 85.5952 19.844C84.9885 19.6533 84.4859 19.324 84.0872 18.856C83.6885 18.3707 83.4199 17.7207 83.2812 16.906H84.4512C84.0525 17.7553 83.5065 18.4313 82.8132 18.934C82.1372 19.4367 81.3225 19.8007 80.3692 20.026C79.4332 20.2687 78.3759 20.416 77.1972 20.468C76.0185 20.5373 74.7359 20.5633 73.3492 20.546ZM72.1012 14.384L71.4252 11.81C72.0319 11.654 72.5259 11.5153 72.9072 11.394C73.3059 11.2727 73.6005 11.1513 73.7912 11.03C73.9819 10.9087 74.0772 10.7873 74.0772 10.666C74.0772 10.51 73.9992 10.3453 73.8432 10.172C73.6872 9.99867 73.5139 9.79933 73.3232 9.574C73.1325 9.34867 72.9592 9.09733 72.8032 8.82C72.6472 8.54267 72.5692 8.222 72.5692 7.858C72.5692 7.42467 72.6905 7.01733 72.9332 6.636C73.1759 6.23733 73.5659 5.856 74.1032 5.492C74.6579 5.11067 75.3859 4.738 76.2872 4.374L77.4052 6.688C76.6772 6.98267 76.1832 7.24267 75.9232 7.468C75.6805 7.676 75.5592 7.87533 75.5592 8.066C75.5592 8.222 75.6372 8.404 75.7932 8.612C75.9492 8.82 76.1225 9.054 76.3132 9.314C76.5212 9.55667 76.7032 9.834 76.8592 10.146C77.0152 10.4407 77.0932 10.7613 77.0932 11.108C77.0932 11.3853 77.0325 11.6713 76.9112 11.966C76.8072 12.2607 76.5819 12.5467 76.2352 12.824C75.9059 13.1013 75.4119 13.37 74.7532 13.63C74.0945 13.89 73.2105 14.1413 72.1012 14.384ZM73.3492 20.546C71.4772 20.546 69.8912 20.3987 68.5912 20.104C67.3085 19.8267 66.2599 19.428 65.4452 18.908C64.6479 18.3707 64.0672 17.7467 63.7032 17.036C63.3392 16.3253 63.1572 15.5453 63.1572 14.696C63.1572 14.1413 63.2005 13.5867 63.2872 13.032C63.3912 12.46 63.5125 11.9053 63.6512 11.368C63.8072 10.8307 63.9459 10.3453 64.0672 9.912L67.3172 10.666C67.2479 10.978 67.1699 11.316 67.0832 11.68C66.9965 12.044 66.9272 12.3993 66.8752 12.746C66.8232 13.0753 66.7972 13.3787 66.7972 13.656C66.7972 14.2973 67.0225 14.8693 67.4732 15.372C67.9412 15.8573 68.7039 16.2387 69.7612 16.516C70.8185 16.776 72.2399 16.906 74.0252 16.906L74.5452 19.714L73.3492 20.546ZM87.6396 20.13L87.8996 16.49C88.7143 16.49 89.2863 16.412 89.6156 16.256C89.9623 16.0827 90.1703 15.7707 90.2396 15.32C90.309 14.852 90.3263 14.176 90.2916 13.292L89.8756 0.967999H93.5676L94.0096 13.266C94.0443 14.1327 94.1483 14.8 94.3216 15.268C94.495 15.736 94.781 16.0567 95.1796 16.23C95.5956 16.4033 96.1503 16.49 96.8436 16.49C97.5023 16.49 97.9703 16.6633 98.2476 17.01C98.525 17.3393 98.6636 17.7553 98.6636 18.258C98.6636 18.7953 98.4816 19.246 98.1176 19.61C97.7536 19.9567 97.2423 20.13 96.5836 20.13C95.821 20.13 95.1103 20.0433 94.4516 19.87C93.793 19.6967 93.247 19.3673 92.8136 18.882C92.3803 18.3967 92.0943 17.6947 91.9556 16.776L93.0996 16.802C92.805 17.7033 92.4236 18.3967 91.9556 18.882C91.4876 19.35 90.8983 19.6793 90.1876 19.87C89.4943 20.0433 88.645 20.13 87.6396 20.13ZM96.5771 20.13L96.8371 16.49H104.325C104.984 16.49 105.452 16.6633 105.729 17.01C106.024 17.3393 106.171 17.7553 106.171 18.258C106.171 18.7953 105.989 19.246 105.625 19.61C105.261 19.9567 104.741 20.13 104.065 20.13H96.5771ZM104.093 20.13L104.353 16.49H111.841C112.499 16.49 112.967 16.6633 113.245 17.01C113.539 17.3393 113.687 17.7553 113.687 18.258C113.687 18.7953 113.505 19.246 113.141 19.61C112.777 19.9567 112.257 20.13 111.581 20.13H104.093ZM111.608 20.13L111.868 16.49H119.356C120.015 16.49 120.483 16.6633 120.76 17.01C121.055 17.3393 121.202 17.7553 121.202 18.258C121.202 18.7953 121.02 19.246 120.656 19.61C120.292 19.9567 119.772 20.13 119.096 20.13H111.608ZM119.124 20.13L119.384 16.49H126.872C127.531 16.49 127.999 16.6633 128.276 17.01C128.571 17.3393 128.718 17.7553 128.718 18.258C128.718 18.7953 128.536 19.246 128.172 19.61C127.808 19.9567 127.288 20.13 126.612 20.13H119.124ZM126.64 20.13L126.9 16.49H134.388C135.046 16.49 135.514 16.6633 135.792 17.01C136.086 17.3393 136.234 17.7553 136.234 18.258C136.234 18.7953 136.052 19.246 135.688 19.61C135.324 19.9567 134.804 20.13 134.128 20.13H126.64ZM134.155 20.13L134.415 16.49H141.903C142.562 16.49 143.03 16.6633 143.307 17.01C143.602 17.3393 143.749 17.7553 143.749 18.258C143.749 18.7953 143.567 19.246 143.203 19.61C142.839 19.9567 142.319 20.13 141.643 20.13H134.155ZM141.671 20.13L141.931 16.516C142.607 16.5333 143.231 16.5247 143.803 16.49C144.375 16.4553 144.886 16.4033 145.337 16.334C145.805 16.2647 146.212 16.1867 146.559 16.1C146.923 16.0133 147.226 15.9353 147.469 15.866C148.058 15.6753 148.561 15.45 148.977 15.19C149.393 14.9127 149.714 14.6007 149.939 14.254C150.164 13.9073 150.277 13.5347 150.277 13.136C150.277 12.824 150.208 12.512 150.069 12.2C149.948 11.8707 149.766 11.602 149.523 11.394C149.28 11.186 148.994 11.082 148.665 11.082C148.353 11.082 148.067 11.1773 147.807 11.368C147.547 11.5587 147.339 11.8187 147.183 12.148C147.027 12.46 146.949 12.824 146.949 13.24C146.949 13.604 147.036 13.9507 147.209 14.28C147.382 14.592 147.625 14.8953 147.937 15.19C148.249 15.4847 148.622 15.762 149.055 16.022L145.597 17.348C145.216 16.984 144.852 16.594 144.505 16.178C144.176 15.762 143.898 15.294 143.673 14.774C143.465 14.2367 143.361 13.6387 143.361 12.98C143.361 12.1827 143.517 11.4547 143.829 10.796C144.141 10.1373 144.557 9.574 145.077 9.106C145.597 8.62067 146.178 8.248 146.819 7.988C147.46 7.728 148.102 7.598 148.743 7.598C149.783 7.598 150.684 7.84067 151.447 8.326C152.21 8.81133 152.799 9.444 153.215 10.224C153.648 11.004 153.865 11.8533 153.865 12.772C153.865 13.6213 153.709 14.384 153.397 15.06C153.085 15.7187 152.66 16.308 152.123 16.828C151.603 17.3307 151.022 17.7727 150.381 18.154C149.757 18.5353 149.124 18.856 148.483 19.116C148.171 19.2547 147.781 19.3847 147.313 19.506C146.845 19.6273 146.316 19.74 145.727 19.844C145.138 19.9307 144.505 20 143.829 20.052C143.153 20.104 142.434 20.13 141.671 20.13ZM155.399 20.13C154.394 20.13 153.406 20.078 152.435 19.974C151.464 19.87 150.563 19.714 149.731 19.506C148.916 19.298 148.206 19.0467 147.599 18.752L149.393 15.944C149.913 16.0827 150.52 16.1953 151.213 16.282C151.924 16.3513 152.66 16.4033 153.423 16.438C154.203 16.4727 154.948 16.49 155.659 16.49C156.318 16.49 156.786 16.6633 157.063 17.01C157.358 17.3393 157.505 17.7553 157.505 18.258C157.505 18.7953 157.323 19.246 156.959 19.61C156.595 19.9567 156.075 20.13 155.399 20.13ZM148.769 5.18C148.232 5.18 147.772 4.998 147.391 4.634C147.027 4.27 146.845 3.81933 146.845 3.282C146.845 2.74467 147.027 2.28533 147.391 1.904C147.772 1.52267 148.232 1.332 148.769 1.332C149.289 1.332 149.731 1.52267 150.095 1.904C150.476 2.28533 150.667 2.74467 150.667 3.282C150.667 3.81933 150.476 4.27 150.095 4.634C149.731 4.998 149.289 5.18 148.769 5.18ZM155.433 20.13L155.693 16.49C156.49 16.49 157.062 16.412 157.409 16.256C157.755 16.0827 157.963 15.7707 158.033 15.32C158.102 14.852 158.119 14.176 158.085 13.292L157.617 0.967999H161.283L161.803 13.552C161.837 14.5573 161.794 15.4673 161.673 16.282C161.569 17.0793 161.3 17.764 160.867 18.336C160.451 18.908 159.801 19.35 158.917 19.662C158.05 19.974 156.889 20.13 155.433 20.13ZM165.231 20L164.685 0.967999H168.325L168.871 20H165.231ZM188.47 20.546L189.146 16.906C190.793 16.9233 192.119 16.88 193.124 16.776C194.147 16.6547 194.918 16.438 195.438 16.126C195.976 15.7967 196.322 15.3373 196.478 14.748C196.652 14.1413 196.712 13.37 196.66 12.434L196.088 0.967999H199.728L200.3 12.616C200.387 14.1933 200.274 15.502 199.962 16.542C199.65 17.5647 199.061 18.3707 198.194 18.96C197.328 19.532 196.106 19.9393 194.528 20.182C192.951 20.4247 190.932 20.546 188.47 20.546ZM187.222 14.384L186.546 11.81C187.153 11.654 187.647 11.5153 188.028 11.394C188.427 11.2727 188.722 11.1513 188.912 11.03C189.103 10.9087 189.198 10.7873 189.198 10.666C189.198 10.51 189.12 10.3453 188.964 10.172C188.808 9.99867 188.635 9.79933 188.444 9.574C188.254 9.34867 188.08 9.09733 187.924 8.82C187.768 8.54267 187.69 8.222 187.69 7.858C187.69 7.42467 187.812 7.01733 188.054 6.636C188.297 6.23733 188.687 5.856 189.224 5.492C189.779 5.11067 190.507 4.738 191.408 4.374L192.526 6.688C191.798 6.98267 191.304 7.24267 191.044 7.468C190.802 7.676 190.68 7.87533 190.68 8.066C190.68 8.222 190.758 8.404 190.914 8.612C191.07 8.82 191.244 9.054 191.434 9.314C191.642 9.55667 191.824 9.834 191.98 10.146C192.136 10.4407 192.214 10.7613 192.214 11.108C192.214 11.3853 192.154 11.6713 192.032 11.966C191.928 12.2607 191.703 12.5467 191.356 12.824C191.027 13.1013 190.533 13.37 189.874 13.63C189.216 13.89 188.332 14.1413 187.222 14.384ZM188.47 20.546C186.598 20.546 185.012 20.3987 183.712 20.104C182.43 19.8267 181.381 19.428 180.566 18.908C179.769 18.3707 179.188 17.7467 178.824 17.036C178.46 16.3253 178.278 15.5453 178.278 14.696C178.278 14.1413 178.322 13.5867 178.408 13.032C178.512 12.46 178.634 11.9053 178.772 11.368C178.928 10.8307 179.067 10.3453 179.188 9.912L182.438 10.666C182.369 10.978 182.291 11.316 182.204 11.68C182.118 12.044 182.048 12.3993 181.996 12.746C181.944 13.0753 181.918 13.3787 181.918 13.656C181.918 14.2973 182.144 14.8693 182.594 15.372C183.062 15.8573 183.825 16.2387 184.882 16.516C185.94 16.776 187.361 16.906 189.146 16.906L189.666 19.714L188.47 20.546ZM201.399 25.98L200.073 22.652C201.564 22.132 202.769 21.56 203.687 20.936C204.623 20.312 205.308 19.6447 205.741 18.934C206.192 18.2233 206.417 17.4867 206.417 16.724C206.417 16.2387 206.348 15.736 206.209 15.216C206.071 14.6787 205.871 14.1153 205.611 13.526C205.369 12.9367 205.074 12.3213 204.727 11.68L208.133 10.042C208.74 11.2033 209.208 12.3127 209.537 13.37C209.884 14.4273 210.057 15.4153 210.057 16.334C210.057 17.1833 209.945 17.998 209.719 18.778C209.511 19.558 209.182 20.286 208.731 20.962C208.298 21.6553 207.735 22.3053 207.041 22.912C206.348 23.5187 205.533 24.0733 204.597 24.576C203.661 25.096 202.595 25.564 201.399 25.98ZM213.104 25.98L212.35 22.34C213.581 22.184 214.655 21.9933 215.574 21.768C216.493 21.56 217.264 21.2653 217.888 20.884C218.512 20.5027 218.98 19.9827 219.292 19.324C219.604 18.648 219.76 17.7813 219.76 16.724C219.76 16.3427 219.725 15.9613 219.656 15.58C219.587 15.1813 219.483 14.8173 219.344 14.488C219.205 14.1587 219.023 13.89 218.798 13.682C218.59 13.474 218.339 13.37 218.044 13.37C217.732 13.37 217.455 13.4827 217.212 13.708C216.969 13.916 216.779 14.1847 216.64 14.514C216.501 14.826 216.432 15.1467 216.432 15.476C216.432 15.7187 216.493 15.9267 216.614 16.1C216.735 16.256 216.917 16.3773 217.16 16.464C217.403 16.5333 217.706 16.568 218.07 16.568C218.486 16.568 218.911 16.5247 219.344 16.438C219.795 16.334 220.202 16.1953 220.566 16.022L220.67 18.856C220.254 19.1853 219.777 19.48 219.24 19.74C218.703 19.9827 218.053 20.104 217.29 20.104C216.666 20.104 216.085 20.0347 215.548 19.896C215.011 19.74 214.534 19.506 214.118 19.194C213.719 18.882 213.407 18.4833 213.182 17.998C212.957 17.4953 212.844 16.8973 212.844 16.204C212.844 15.3547 212.983 14.5313 213.26 13.734C213.537 12.9367 213.919 12.226 214.404 11.602C214.907 10.9607 215.479 10.458 216.12 10.094C216.779 9.71267 217.472 9.522 218.2 9.522C219.067 9.522 219.821 9.73867 220.462 10.172C221.121 10.6053 221.667 11.1773 222.1 11.888C222.533 12.5813 222.863 13.3353 223.088 14.15C223.313 14.9647 223.426 15.7447 223.426 16.49C223.426 18.4487 223.01 20.1127 222.178 21.482C221.346 22.8513 220.159 23.9087 218.616 24.654C217.073 25.4167 215.236 25.8587 213.104 25.98ZM226.053 25.98L225.299 22.34C226.53 22.184 227.605 21.9933 228.523 21.768C229.442 21.56 230.213 21.2653 230.837 20.884C231.461 20.5027 231.929 19.9827 232.241 19.324C232.553 18.648 232.709 17.7813 232.709 16.724C232.709 15.7013 232.553 14.8867 232.241 14.28C231.929 13.6733 231.513 13.37 230.993 13.37C230.629 13.37 230.326 13.5 230.083 13.76C229.841 14.0027 229.659 14.2973 229.537 14.644C229.433 14.9733 229.381 15.268 229.381 15.528C229.381 15.684 229.425 15.8487 229.511 16.022C229.598 16.1953 229.789 16.3427 230.083 16.464C230.378 16.5853 230.837 16.6547 231.461 16.672C232.103 16.6893 232.969 16.6287 234.061 16.49H238.429C239.088 16.49 239.556 16.6633 239.833 17.01C240.128 17.3393 240.275 17.7553 240.275 18.258C240.275 18.7953 240.093 19.246 239.729 19.61C239.365 19.9567 238.845 20.13 238.169 20.13H231.019C229.927 20.13 228.991 20 228.211 19.74C227.431 19.48 226.833 19.064 226.417 18.492C226.001 17.9027 225.793 17.1227 225.793 16.152C225.793 15.372 225.923 14.592 226.183 13.812C226.461 13.032 226.842 12.3213 227.327 11.68C227.813 11.0213 228.376 10.5013 229.017 10.12C229.676 9.72133 230.387 9.522 231.149 9.522C232.189 9.522 233.099 9.84267 233.879 10.484C234.659 11.1253 235.266 11.9747 235.699 13.032C236.15 14.0893 236.375 15.242 236.375 16.49C236.375 18.4487 235.959 20.1127 235.127 21.482C234.295 22.8513 233.108 23.9087 231.565 24.654C230.023 25.4167 228.185 25.8587 226.053 25.98ZM238.206 20.13L238.466 16.49H245.954C246.613 16.49 247.081 16.6633 247.358 17.01C247.653 17.3393 247.8 17.7553 247.8 18.258C247.8 18.7953 247.618 19.246 247.254 19.61C246.89 19.9567 246.37 20.13 245.694 20.13H238.206ZM245.722 20.13L245.982 16.49H253.47C254.128 16.49 254.596 16.6633 254.874 17.01C255.168 17.3393 255.316 17.7553 255.316 18.258C255.316 18.7953 255.134 19.246 254.77 19.61C254.406 19.9567 253.886 20.13 253.21 20.13H245.722ZM253.237 20.13L253.497 16.49H260.985C261.644 16.49 262.112 16.6633 262.389 17.01C262.684 17.3393 262.831 17.7553 262.831 18.258C262.831 18.7953 262.649 19.246 262.285 19.61C261.921 19.9567 261.401 20.13 260.725 20.13H253.237ZM260.753 20.13L261.013 16.49H268.501C269.16 16.49 269.628 16.6633 269.905 17.01C270.2 17.3393 270.347 17.7553 270.347 18.258C270.347 18.7953 270.165 19.246 269.801 19.61C269.437 19.9567 268.917 20.13 268.241 20.13H260.753ZM268.269 20.13L268.529 16.49H276.017C276.675 16.49 277.143 16.6633 277.421 17.01C277.715 17.3393 277.863 17.7553 277.863 18.258C277.863 18.7953 277.681 19.246 277.317 19.61C276.953 19.9567 276.433 20.13 275.757 20.13H268.269ZM275.784 20.13L276.044 16.49C276.668 16.49 277.206 16.4293 277.656 16.308C278.107 16.1867 278.488 15.944 278.8 15.58C279.112 15.1987 279.372 14.644 279.58 13.916C279.806 13.188 280.005 12.2173 280.178 11.004L283.584 11.576C283.55 11.836 283.498 12.1393 283.428 12.486C283.376 12.8327 283.324 13.188 283.272 13.552C283.238 13.8987 283.22 14.228 283.22 14.54C283.22 14.852 283.281 15.1293 283.402 15.372C283.524 15.6147 283.714 15.8227 283.974 15.996C284.252 16.152 284.607 16.2733 285.04 16.36C285.491 16.4467 286.037 16.49 286.678 16.49C287.337 16.49 287.805 16.6633 288.082 17.01C288.36 17.3393 288.498 17.7553 288.498 18.258C288.498 18.7953 288.316 19.246 287.952 19.61C287.606 19.9567 287.094 20.13 286.418 20.13C285.638 20.13 284.928 20.0693 284.286 19.948C283.662 19.8267 283.116 19.6273 282.648 19.35C282.198 19.0553 281.825 18.674 281.53 18.206C281.253 17.7207 281.08 17.1313 281.01 16.438H282.258C281.946 17.27 281.548 17.9373 281.062 18.44C280.594 18.9253 280.066 19.2893 279.476 19.532C278.887 19.7747 278.272 19.9307 277.63 20C277.006 20.0867 276.391 20.13 275.784 20.13ZM284.13 8.664C283.628 8.664 283.194 8.49067 282.83 8.144C282.484 7.78 282.31 7.35533 282.31 6.87C282.31 6.36733 282.484 5.934 282.83 5.57C283.194 5.206 283.628 5.024 284.13 5.024C284.616 5.024 285.032 5.206 285.378 5.57C285.725 5.934 285.898 6.36733 285.898 6.87C285.898 7.35533 285.725 7.78 285.378 8.144C285.032 8.49067 284.616 8.664 284.13 8.664ZM279.632 8.638C279.13 8.638 278.696 8.46467 278.332 8.118C277.986 7.754 277.812 7.32933 277.812 6.844C277.812 6.34133 277.986 5.908 278.332 5.544C278.696 5.18 279.13 4.998 279.632 4.998C280.118 4.998 280.534 5.18 280.88 5.544C281.227 5.908 281.4 6.34133 281.4 6.844C281.4 7.32933 281.227 7.754 280.88 8.118C280.534 8.46467 280.118 8.638 279.632 8.638ZM286.423 20.13L286.683 16.49C287.446 16.49 288.044 16.438 288.477 16.334C288.928 16.23 289.248 16.0393 289.439 15.762C289.63 15.4673 289.725 15.0513 289.725 14.514C289.725 14.0287 289.656 13.448 289.517 12.772C289.396 12.096 289.231 11.394 289.023 10.666C288.815 9.938 288.607 9.27067 288.399 8.664L291.987 7.676C292.195 8.26533 292.403 8.95 292.611 9.73C292.819 10.51 292.992 11.316 293.131 12.148C293.287 12.9627 293.365 13.7513 293.365 14.514C293.365 15.4673 293.244 16.2733 293.001 16.932C292.758 17.5733 292.42 18.1107 291.987 18.544C291.571 18.96 291.068 19.2893 290.479 19.532C289.907 19.7573 289.274 19.9133 288.581 20C287.888 20.0867 287.168 20.13 286.423 20.13ZM290.167 5.518C289.63 5.518 289.17 5.336 288.789 4.972C288.425 4.608 288.243 4.15733 288.243 3.62C288.243 3.08267 288.425 2.62333 288.789 2.242C289.17 1.86067 289.63 1.67 290.167 1.67C290.687 1.67 291.129 1.86067 291.493 2.242C291.874 2.62333 292.065 3.08267 292.065 3.62C292.065 4.15733 291.874 4.608 291.493 4.972C291.129 5.336 290.687 5.518 290.167 5.518ZM70.6172 33.54C72.2465 33.54 73.6678 33.8607 74.8812 34.502C76.0945 35.1433 77.0305 36.0967 77.6892 37.362C78.3652 38.61 78.7032 40.1267 78.7032 41.912V52H75.3232V47.32H65.8592V52H62.5312V41.912C62.5312 40.1267 62.8605 38.61 63.5192 37.362C64.1952 36.0967 65.1398 35.1433 66.3532 34.502C67.5665 33.8607 68.9878 33.54 70.6172 33.54ZM75.3232 44.486V41.6C75.3232 39.9187 74.9072 38.6533 74.0752 37.804C73.2432 36.9373 72.0818 36.504 70.5912 36.504C69.1005 36.504 67.9392 36.9373 67.1072 37.804C66.2752 38.6533 65.8592 39.9187 65.8592 41.6V44.486H75.3232ZM87.6953 52.182C86.2566 52.182 85.13 51.792 84.3153 51.012C83.518 50.2147 83.1193 49.0967 83.1193 47.658V32.708H86.3693V47.424C86.3693 48.8107 87.0193 49.504 88.3193 49.504C88.7526 49.504 89.1426 49.4173 89.4893 49.244L89.6453 51.844C89.0386 52.0693 88.3886 52.182 87.6953 52.182ZM107.307 36.504C105.747 36.504 104.569 36.8507 103.771 37.544C102.974 38.2373 102.575 39.26 102.575 40.612V42.172H110.505V45.032H102.575V52H99.1952V40.612C99.1952 38.4107 99.8972 36.686 101.301 35.438C102.723 34.1727 104.673 33.54 107.151 33.54C108.191 33.54 109.162 33.6527 110.063 33.878C110.965 34.1033 111.753 34.4327 112.429 34.866L111.363 37.622C110.289 36.8767 108.937 36.504 107.307 36.504ZM127.693 38.116V52H124.599V50.206C124.062 50.8647 123.395 51.3587 122.597 51.688C121.817 52.0173 120.951 52.182 119.997 52.182C118.645 52.182 117.432 51.8873 116.357 51.298C115.3 50.7087 114.468 49.8767 113.861 48.802C113.272 47.7273 112.977 46.4793 112.977 45.058C112.977 43.6367 113.272 42.3973 113.861 41.34C114.468 40.2653 115.3 39.4333 116.357 38.844C117.432 38.2547 118.645 37.96 119.997 37.96C120.899 37.96 121.722 38.116 122.467 38.428C123.23 38.74 123.889 39.1993 124.443 39.806V38.116H127.693ZM120.361 49.4C121.557 49.4 122.545 49.0013 123.325 48.204C124.105 47.4067 124.495 46.358 124.495 45.058C124.495 43.758 124.105 42.7093 123.325 41.912C122.545 41.1147 121.557 40.716 120.361 40.716C119.165 40.716 118.177 41.1147 117.397 41.912C116.635 42.7093 116.253 43.758 116.253 45.058C116.253 46.358 116.635 47.4067 117.397 48.204C118.177 49.0013 119.165 49.4 120.361 49.4ZM136.521 52.182C135.083 52.182 133.956 51.792 133.141 51.012C132.344 50.2147 131.945 49.0967 131.945 47.658V32.708H135.195V47.424C135.195 48.8107 135.845 49.504 137.145 49.504C137.579 49.504 137.969 49.4173 138.315 49.244L138.471 51.844C137.865 52.0693 137.215 52.182 136.521 52.182ZM153.998 38.116V52H150.904V50.206C150.367 50.8647 149.699 51.3587 148.902 51.688C148.122 52.0173 147.255 52.182 146.302 52.182C144.95 52.182 143.737 51.8873 142.662 51.298C141.605 50.7087 140.773 49.8767 140.166 48.802C139.577 47.7273 139.282 46.4793 139.282 45.058C139.282 43.6367 139.577 42.3973 140.166 41.34C140.773 40.2653 141.605 39.4333 142.662 38.844C143.737 38.2547 144.95 37.96 146.302 37.96C147.203 37.96 148.027 38.116 148.772 38.428C149.535 38.74 150.193 39.1993 150.748 39.806V38.116H153.998ZM146.666 49.4C147.862 49.4 148.85 49.0013 149.63 48.204C150.41 47.4067 150.8 46.358 150.8 45.058C150.8 43.758 150.41 42.7093 149.63 41.912C148.85 41.1147 147.862 40.716 146.666 40.716C145.47 40.716 144.482 41.1147 143.702 41.912C142.939 42.7093 142.558 43.758 142.558 45.058C142.558 46.358 142.939 47.4067 143.702 48.204C144.482 49.0013 145.47 49.4 146.666 49.4ZM163.918 46.046L161.5 48.334V52H158.25V32.708H161.5V44.356L168.234 38.116H172.134L166.336 43.94L172.68 52H168.728L163.918 46.046ZM191.325 33.54C193.509 33.54 195.208 34.2073 196.421 35.542C197.652 36.8767 198.267 38.7833 198.267 41.262V52H194.887V41.392C194.887 39.78 194.497 38.5667 193.717 37.752C192.954 36.92 191.888 36.504 190.519 36.504C189.028 36.504 187.841 36.946 186.957 37.83C186.09 38.6967 185.657 39.9967 185.657 41.73V52H182.277V33.8H185.553V36.088C186.818 34.3893 188.742 33.54 191.325 33.54ZM209.288 49.426C210.796 49.426 212.052 48.9233 213.058 47.918L214.774 49.92C214.167 50.6653 213.387 51.2287 212.434 51.61C211.48 51.9913 210.406 52.182 209.21 52.182C207.684 52.182 206.341 51.8787 205.18 51.272C204.018 50.6653 203.117 49.8247 202.476 48.75C201.852 47.658 201.54 46.4273 201.54 45.058C201.54 43.706 201.843 42.4927 202.45 41.418C203.074 40.326 203.923 39.4767 204.998 38.87C206.09 38.2633 207.32 37.96 208.69 37.96C209.99 37.96 211.168 38.246 212.226 38.818C213.3 39.3727 214.15 40.1787 214.774 41.236C215.398 42.276 215.71 43.498 215.71 44.902L205.076 46.982C205.405 47.7793 205.934 48.386 206.662 48.802C207.39 49.218 208.265 49.426 209.288 49.426ZM208.69 40.56C207.494 40.56 206.523 40.95 205.778 41.73C205.05 42.51 204.686 43.5587 204.686 44.876V44.902L212.538 43.394C212.312 42.5447 211.853 41.86 211.16 41.34C210.484 40.82 209.66 40.56 208.69 40.56ZM226.632 51.246C226.251 51.558 225.783 51.792 225.228 51.948C224.691 52.104 224.119 52.182 223.512 52.182C221.987 52.182 220.808 51.7833 219.976 50.986C219.144 50.1887 218.728 49.0273 218.728 47.502V35.048H221.978V38.22H225.696V40.82H221.978V47.424C221.978 48.1 222.143 48.62 222.472 48.984C222.819 49.3307 223.296 49.504 223.902 49.504C224.63 49.504 225.237 49.3133 225.722 48.932L226.632 51.246ZM250.665 38.116V45.786C250.665 47.814 250.136 49.3913 249.079 50.518C248.021 51.6273 246.505 52.182 244.529 52.182C242.397 52.182 240.863 51.4627 239.927 50.024C239.441 50.752 238.817 51.298 238.055 51.662C237.309 52.0087 236.399 52.182 235.325 52.182C233.349 52.182 231.832 51.6273 230.775 50.518C229.735 49.3913 229.215 47.814 229.215 45.786V38.116H232.465V45.5C232.465 46.8173 232.69 47.788 233.141 48.412C233.609 49.036 234.345 49.348 235.351 49.348C236.356 49.348 237.101 49.036 237.587 48.412C238.072 47.7707 238.315 46.8 238.315 45.5V38.116H241.565V45.5C241.565 46.8 241.807 47.7707 242.293 48.412C242.778 49.036 243.523 49.348 244.529 49.348C245.534 49.348 246.262 49.036 246.713 48.412C247.181 47.788 247.415 46.8173 247.415 45.5V38.116H250.665ZM261.051 52.182C259.647 52.182 258.381 51.8787 257.255 51.272C256.128 50.6653 255.244 49.8247 254.603 48.75C253.979 47.658 253.667 46.4273 253.667 45.058C253.667 43.6887 253.979 42.4667 254.603 41.392C255.244 40.3173 256.128 39.4767 257.255 38.87C258.381 38.2633 259.647 37.96 261.051 37.96C262.472 37.96 263.746 38.2633 264.873 38.87C265.999 39.4767 266.875 40.3173 267.499 41.392C268.14 42.4667 268.461 43.6887 268.461 45.058C268.461 46.4273 268.14 47.658 267.499 48.75C266.875 49.8247 265.999 50.6653 264.873 51.272C263.746 51.8787 262.472 52.182 261.051 52.182ZM261.051 49.4C262.247 49.4 263.235 49.0013 264.015 48.204C264.795 47.4067 265.185 46.358 265.185 45.058C265.185 43.758 264.795 42.7093 264.015 41.912C263.235 41.1147 262.247 40.716 261.051 40.716C259.855 40.716 258.867 41.1147 258.087 41.912C257.324 42.7093 256.943 43.758 256.943 45.058C256.943 46.358 257.324 47.4067 258.087 48.204C258.867 49.0013 259.855 49.4 261.051 49.4ZM274.663 40.144C275.599 38.688 277.245 37.96 279.603 37.96V41.054C279.325 41.002 279.074 40.976 278.849 40.976C277.583 40.976 276.595 41.3487 275.885 42.094C275.174 42.822 274.819 43.8793 274.819 45.266V52H271.569V38.116H274.663V40.144ZM288.028 46.046L285.61 48.334V52H282.36V32.708H285.61V44.356L292.344 38.116H296.244L290.446 43.94L296.79 52H292.838L288.028 46.046Z" fill="white"/>
<path d="M50 2H22.4756V13.3524H50V2Z" fill="white"/>
<path d="M11.4446 2.48901L22.3684 13.4596V28.6248L11.4791 17.6888L11.4446 2.48901Z" fill="white"/>
<path d="M0 7.22791L11.273 17.4953V29.4973L0.204714 18.3816L0 7.22791Z" fill="white"/>
<path d="M22.1967 52H11.2729V29.4974H44.6739V40.7478H22.1967V52Z" fill="white"/>
</svg>
